<svg width="329" height="53" viewBox="0 0 329 53" fill="none" xmlns="http://www.w3.org/2000/svg">
<path d="M328.762 39.2204C328.762 46.6783 322.652 52.7883 315.194 52.7883H188.568C181.11 52.7883 175 46.6783 175 39.2204V15.0948C175 7.63692 181.11 1.52686 188.568 1.52686H315.194C322.652 1.52686 328.762 7.63692 328.762 15.0948V39.2204Z" fill="#404040"/>
<path d="M233.525 20.3765L232.875 18.7765H229.855L229.205 20.3765H228.405L231.075 13.8765H231.655L234.325 20.3765H233.525ZM230.135 18.0765H232.585L231.355 15.0465L230.135 18.0765ZM235.973 20.3765L234.163 15.7765H234.913L236.333 19.3865L237.763 15.7765H238.513L236.683 20.3765H235.973ZM242.983 15.7765H243.713V20.3765H242.983V19.5465C242.633 20.0965 242.053 20.4565 241.273 20.4565C239.963 20.4565 239.033 19.4465 239.033 18.0765C239.033 16.6965 239.963 15.7065 241.273 15.7065C242.053 15.7065 242.633 16.0565 242.983 16.6065V15.7765ZM241.363 19.7665C242.353 19.7665 242.983 19.0565 242.983 18.0765C242.983 17.0965 242.353 16.3965 241.363 16.3965C240.383 16.3965 239.733 17.0965 239.733 18.0765C239.733 19.0565 240.383 19.7665 241.363 19.7665ZM245.404 14.7965C245.184 14.7965 244.964 14.6165 244.964 14.3465C244.964 14.0765 245.184 13.9165 245.404 13.9165C245.624 13.9165 245.844 14.0765 245.844 14.3465C245.844 14.6165 245.624 14.7965 245.404 14.7965ZM245.764 20.3765H245.044V15.7765H245.774L245.764 20.3765ZM247.823 20.3765H247.103V13.8765H247.823V20.3765ZM252.895 15.7765H253.625V20.3765H252.895V19.5465C252.545 20.0965 251.965 20.4565 251.185 20.4565C249.875 20.4565 248.945 19.4465 248.945 18.0765C248.945 16.6965 249.875 15.7065 251.185 15.7065C251.965 15.7065 252.545 16.0565 252.895 16.6065V15.7765ZM251.275 19.7665C252.265 19.7665 252.895 19.0565 252.895 18.0765C252.895 17.0965 252.265 16.3965 251.275 16.3965C250.295 16.3965 249.645 17.0965 249.645 18.0765C249.645 19.0565 250.295 19.7665 251.275 19.7665ZM257.306 15.7065C258.616 15.7065 259.556 16.6965 259.556 18.0765C259.556 19.4465 258.616 20.4565 257.306 20.4565C256.526 20.4565 255.946 20.0965 255.596 19.5465V20.3765H254.876V13.8765H255.596V16.6065C255.946 16.0565 256.526 15.7065 257.306 15.7065ZM257.216 19.7665C258.196 19.7665 258.846 19.0565 258.846 18.0765C258.846 17.0965 258.196 16.3965 257.216 16.3965C256.236 16.3965 255.596 17.0965 255.596 18.0765C255.596 19.0565 256.236 19.7665 257.216 19.7665ZM261.387 20.3765H260.667V13.8765H261.387V20.3765ZM264.78 15.6965C266.1 15.6965 266.98 16.7065 266.98 18.0765V18.3065H263.21C263.3 19.2265 263.93 19.8365 264.84 19.8365C265.52 19.8365 265.99 19.5265 266.25 19.1365L266.76 19.5065C266.36 20.0965 265.68 20.4665 264.84 20.4665C263.44 20.4665 262.51 19.4465 262.51 18.0765C262.51 16.7065 263.4 15.6965 264.78 15.6965ZM264.78 16.2965C263.88 16.2965 263.31 16.9065 263.21 17.8065H266.31C266.21 16.9365 265.64 16.2965 264.78 16.2965ZM272.301 20.4665C270.921 20.4665 269.961 19.4465 269.961 18.0765C269.961 16.6965 270.921 15.6965 272.301 15.6965C273.681 15.6965 274.641 16.6965 274.641 18.0765C274.641 19.4465 273.681 20.4665 272.301 20.4665ZM272.301 19.7665C273.271 19.7665 273.911 19.0465 273.911 18.0765C273.911 17.1065 273.271 16.3965 272.301 16.3965C271.331 16.3965 270.681 17.1065 270.681 18.0765C270.681 19.0465 271.331 19.7665 272.301 19.7665ZM277.955 15.7065C278.875 15.7065 279.785 16.2465 279.785 17.5465V20.3765H279.065V17.6465C279.065 16.7665 278.445 16.3365 277.765 16.3365C277.075 16.3365 276.475 16.7665 276.475 17.6465V20.3765H275.755V15.7765H276.475V16.3965C276.825 15.9165 277.385 15.7065 277.955 15.7065ZM285.22 16.3465H284.12V19.1765C284.12 19.6665 284.42 19.7865 284.76 19.7865H285.17V20.3765H284.5C283.8 20.3765 283.39 19.9765 283.39 19.2765V16.3465H282.75V15.7765H283.39V14.3765H284.12V15.7765H285.22V16.3465ZM288.414 15.7065C289.334 15.7065 290.244 16.2465 290.244 17.5465V20.3765H289.524V17.6465C289.524 16.7665 288.904 16.3365 288.224 16.3365C287.534 16.3365 286.934 16.7665 286.934 17.6465V20.3765H286.214V13.8765H286.934V16.3965C287.284 15.9165 287.844 15.7065 288.414 15.7065ZM293.637 15.6965C294.957 15.6965 295.837 16.7065 295.837 18.0765V18.3065H292.067C292.157 19.2265 292.787 19.8365 293.697 19.8365C294.377 19.8365 294.847 19.5265 295.107 19.1365L295.617 19.5065C295.217 20.0965 294.537 20.4665 293.697 20.4665C292.297 20.4665 291.367 19.4465 291.367 18.0765C291.367 16.7065 292.257 15.6965 293.637 15.6965ZM293.637 16.2965C292.737 16.2965 292.167 16.9065 292.067 17.8065H295.167C295.067 16.9365 294.497 16.2965 293.637 16.2965Z" fill="white"/>
<path d="M235.472 41.5276L234.302 38.6476H228.866L227.696 41.5276H226.256L231.062 29.8276H232.106L236.912 41.5276H235.472ZM229.37 37.3876H233.78L231.566 31.9336L229.37 37.3876ZM242.842 33.1216C245.2 33.1216 246.892 34.9396 246.892 37.4056C246.892 39.8896 245.2 41.6716 242.842 41.6716C241.438 41.6716 240.394 41.0416 239.764 40.0336V44.8396H238.468V33.2476H239.764V34.7596C240.394 33.7516 241.438 33.1216 242.842 33.1216ZM242.68 40.4296C244.444 40.4296 245.614 39.1696 245.614 37.4056C245.614 35.6416 244.444 34.3636 242.68 34.3636C240.916 34.3636 239.764 35.6416 239.764 37.4056C239.764 39.1696 240.916 40.4296 242.68 40.4296ZM253.266 33.1216C255.624 33.1216 257.316 34.9396 257.316 37.4056C257.316 39.8896 255.624 41.6716 253.266 41.6716C251.862 41.6716 250.818 41.0416 250.188 40.0336V44.8396H248.892V33.2476H250.188V34.7596C250.818 33.7516 251.862 33.1216 253.266 33.1216ZM253.104 40.4296C254.868 40.4296 256.038 39.1696 256.038 37.4056C256.038 35.6416 254.868 34.3636 253.104 34.3636C251.34 34.3636 250.188 35.6416 250.188 37.4056C250.188 39.1696 251.34 40.4296 253.104 40.4296ZM262.559 39.0256L263.675 38.2876C264.089 39.3856 265.529 40.3756 267.473 40.3756C269.489 40.3756 270.335 39.6196 270.335 38.2696C270.335 36.7396 268.049 36.3796 266.987 36.0736C265.853 35.7676 262.973 35.2816 262.973 32.8696C262.973 30.6736 264.845 29.6296 267.347 29.6296C269.507 29.6296 271.235 30.6736 271.667 31.9516L270.551 32.6176C270.227 31.7536 268.895 30.9796 267.203 30.9796C265.457 30.9796 264.503 31.6636 264.503 32.8156C264.503 34.2556 266.591 34.5616 267.743 34.8676C268.787 35.1736 271.829 35.7856 271.829 38.2156C271.829 40.5196 270.155 41.7256 267.347 41.7256C264.827 41.7256 263.117 40.5556 262.559 39.0256ZM277.635 34.2736H275.655V39.3676C275.655 40.2496 276.195 40.4656 276.807 40.4656H277.545V41.5276H276.339C275.079 41.5276 274.341 40.8076 274.341 39.5476V34.2736H273.189V33.2476H274.341V30.7276H275.655V33.2476H277.635V34.2736ZM282.963 41.6896C280.479 41.6896 278.751 39.8536 278.751 37.3876C278.751 34.9036 280.479 33.1036 282.963 33.1036C285.447 33.1036 287.175 34.9036 287.175 37.3876C287.175 39.8536 285.447 41.6896 282.963 41.6896ZM282.963 40.4296C284.709 40.4296 285.861 39.1336 285.861 37.3876C285.861 35.6416 284.709 34.3636 282.963 34.3636C281.217 34.3636 280.047 35.6416 280.047 37.3876C280.047 39.1336 281.217 40.4296 282.963 40.4296ZM290.477 34.7776C291.107 33.6436 292.223 33.1396 293.393 33.1216V34.3636C292.115 34.3816 290.477 35.0476 290.477 37.0636V41.5276H289.181V33.2476H290.477V34.7776ZM298.323 33.1036C300.699 33.1036 302.283 34.9216 302.283 37.3876V37.8016H295.497C295.659 39.4576 296.793 40.5556 298.431 40.5556C299.655 40.5556 300.501 39.9976 300.969 39.2956L301.887 39.9616C301.167 41.0236 299.943 41.6896 298.431 41.6896C295.911 41.6896 294.237 39.8536 294.237 37.3876C294.237 34.9216 295.839 33.1036 298.323 33.1036ZM298.323 34.1836C296.703 34.1836 295.677 35.2816 295.497 36.9016H301.077C300.897 35.3356 299.871 34.1836 298.323 34.1836Z" fill="white"/>
<path d="M201.933 12.2644H186.029C184.726 12.2644 183.671 13.3202 183.671 14.623V41.5342C183.671 42.8371 184.726 43.8928 186.029 43.8928H201.933C203.236 43.8928 204.292 42.8371 204.292 41.5342V14.623C204.292 13.3426 203.214 12.2644 201.933 12.2644Z" fill="white"/>
<path d="M203.147 16.0608H184.794V38.2546H203.147V16.0608Z" fill="#404040"/>
<path d="M197.733 13.6792H190.208C189.916 13.6792 189.646 13.9263 189.646 14.2408C189.646 14.5553 189.893 14.8024 190.208 14.8024H197.733C198.025 14.8024 198.294 14.5553 198.294 14.2408C198.294 13.9488 198.047 13.6792 197.733 13.6792Z" fill="#6639A6"/>
<path d="M192.185 40.9277C192.185 39.9393 192.993 39.1082 193.982 39.1082C194.97 39.1082 195.801 39.9168 195.801 40.9277C195.801 41.9161 194.993 42.7247 193.982 42.7247C192.993 42.7472 192.185 41.9385 192.185 40.9277Z" fill="#6639A6"/>
<path d="M153.762 38.1979C153.762 45.6558 147.652 51.7658 140.194 51.7658H13.5679C6.11003 51.7658 0 45.6558 0 38.1979V14.0947C0 6.63685 6.11003 0.526855 13.5679 0.526855H140.194C147.652 0.526855 153.762 6.63685 153.762 14.0947V38.1979Z" fill="#404040"/>
<path d="M54.9269 14.9269H55.6569V19.5269H54.9269V18.6969C54.5769 19.2469 53.9969 19.6069 53.2169 19.6069C51.9069 19.6069 50.9769 18.5969 50.9769 17.2269C50.9769 15.8469 51.9069 14.8569 53.2169 14.8569C53.9969 14.8569 54.5769 15.2069 54.9269 15.7569V14.9269ZM53.3069 18.9169C54.2969 18.9169 54.9269 18.2069 54.9269 17.2269C54.9269 16.2469 54.2969 15.5469 53.3069 15.5469C52.3269 15.5469 51.6769 16.2469 51.6769 17.2269C51.6769 18.2069 52.3269 18.9169 53.3069 18.9169ZM59.1079 14.8569C60.0279 14.8569 60.9379 15.3969 60.9379 16.6969V19.5269H60.2179V16.7969C60.2179 15.9169 59.5979 15.4869 58.9179 15.4869C58.2279 15.4869 57.6279 15.9169 57.6279 16.7969V19.5269H56.9079V14.9269H57.6279V15.5469C57.9779 15.0669 58.5379 14.8569 59.1079 14.8569ZM66.0109 13.0269H66.7409V19.5269H66.0109V18.6969C65.6609 19.2469 65.0809 19.6069 64.3009 19.6069C62.9909 19.6069 62.0609 18.5969 62.0609 17.2269C62.0609 15.8469 62.9909 14.8569 64.3009 14.8569C65.0809 14.8569 65.6609 15.2069 66.0109 15.7569V13.0269ZM64.3909 18.9169C65.3809 18.9169 66.0109 18.2069 66.0109 17.2269C66.0109 16.2469 65.3809 15.5469 64.3909 15.5469C63.4109 15.5469 62.7609 16.2469 62.7609 17.2269C62.7609 18.2069 63.4109 18.9169 64.3909 18.9169ZM68.7119 15.7769C69.0619 15.1469 69.6819 14.8669 70.3319 14.8569V15.5469C69.6219 15.5569 68.7119 15.9269 68.7119 17.0469V19.5269H67.9919V14.9269H68.7119V15.7769ZM73.1411 19.6169C71.7611 19.6169 70.8011 18.5969 70.8011 17.2269C70.8011 15.8469 71.7611 14.8469 73.1411 14.8469C74.5211 14.8469 75.4811 15.8469 75.4811 17.2269C75.4811 18.5969 74.5211 19.6169 73.1411 19.6169ZM73.1411 18.9169C74.1111 18.9169 74.7511 18.1969 74.7511 17.2269C74.7511 16.2569 74.1111 15.5469 73.1411 15.5469C72.1711 15.5469 71.5211 16.2569 71.5211 17.2269C71.5211 18.1969 72.1711 18.9169 73.1411 18.9169ZM77.0354 13.9469C76.8154 13.9469 76.5954 13.7669 76.5954 13.4969C76.5954 13.2269 76.8154 13.0669 77.0354 13.0669C77.2554 13.0669 77.4754 13.2269 77.4754 13.4969C77.4754 13.7669 77.2554 13.9469 77.0354 13.9469ZM77.3954 19.5269H76.6754V14.9269H77.4054L77.3954 19.5269ZM82.5441 13.0269H83.2741V19.5269H82.5441V18.6969C82.1941 19.2469 81.6141 19.6069 80.8341 19.6069C79.5241 19.6069 78.5941 18.5969 78.5941 17.2269C78.5941 15.8469 79.5241 14.8569 80.8341 14.8569C81.6141 14.8569 82.1941 15.2069 82.5441 15.7569V13.0269ZM80.9241 18.9169C81.9141 18.9169 82.5441 18.2069 82.5441 17.2269C82.5441 16.2469 81.9141 15.5469 80.9241 15.5469C79.9441 15.5469 79.2941 16.2469 79.2941 17.2269C79.2941 18.2069 79.9441 18.9169 80.9241 18.9169ZM90.3371 14.9269H91.0671V19.5269H90.3371V18.6969C89.9871 19.2469 89.4071 19.6069 88.6271 19.6069C87.3171 19.6069 86.3871 18.5969 86.3871 17.2269C86.3871 15.8469 87.3171 14.8569 88.6271 14.8569C89.4071 14.8569 89.9871 15.2069 90.3371 15.7569V14.9269ZM88.7171 18.9169C89.7071 18.9169 90.3371 18.2069 90.3371 17.2269C90.3371 16.2469 89.7071 15.5469 88.7171 15.5469C87.7371 15.5469 87.0871 16.2469 87.0871 17.2269C87.0871 18.2069 87.7371 18.9169 88.7171 18.9169ZM94.7481 14.8569C96.0581 14.8569 96.9981 15.8669 96.9981 17.2369C96.9981 18.6169 96.0581 19.6069 94.7481 19.6069C93.9681 19.6069 93.3881 19.2569 93.0381 18.6969V21.3669H92.3181V14.9269H93.0381V15.7669C93.3881 15.2069 93.9681 14.8569 94.7481 14.8569ZM94.6581 18.9169C95.6381 18.9169 96.2881 18.2169 96.2881 17.2369C96.2881 16.2569 95.6381 15.5469 94.6581 15.5469C93.6781 15.5469 93.0381 16.2569 93.0381 17.2369C93.0381 18.2169 93.6781 18.9169 94.6581 18.9169ZM100.539 14.8569C101.849 14.8569 102.789 15.8669 102.789 17.2369C102.789 18.6169 101.849 19.6069 100.539 19.6069C99.7591 19.6069 99.1791 19.2569 98.8291 18.6969V21.3669H98.1091V14.9269H98.8291V15.7669C99.1791 15.2069 99.7591 14.8569 100.539 14.8569ZM100.449 18.9169C101.429 18.9169 102.079 18.2169 102.079 17.2369C102.079 16.2569 101.429 15.5469 100.449 15.5469C99.4691 15.5469 98.8291 16.2569 98.8291 17.2369C98.8291 18.2169 99.4691 18.9169 100.449 18.9169ZM108.102 19.6169C106.722 19.6169 105.762 18.5969 105.762 17.2269C105.762 15.8469 106.722 14.8469 108.102 14.8469C109.482 14.8469 110.442 15.8469 110.442 17.2269C110.442 18.5969 109.482 19.6169 108.102 19.6169ZM108.102 18.9169C109.072 18.9169 109.712 18.1969 109.712 17.2269C109.712 16.2569 109.072 15.5469 108.102 15.5469C107.132 15.5469 106.482 16.2569 106.482 17.2269C106.482 18.1969 107.132 18.9169 108.102 18.9169ZM113.756 14.8569C114.676 14.8569 115.586 15.3969 115.586 16.6969V19.5269H114.866V16.7969C114.866 15.9169 114.246 15.4869 113.566 15.4869C112.876 15.4869 112.276 15.9169 112.276 16.7969V19.5269H111.556V14.9269H112.276V15.5469C112.626 15.0669 113.186 14.8569 113.756 14.8569Z" fill="white"/>
<path d="M60.1248 34.7076C60.0168 38.0376 57.8928 40.4316 54.5088 40.4316C51.0348 40.4316 48.6588 37.9116 48.6588 34.4376C48.6588 30.9636 51.0348 28.4436 54.5088 28.4436C56.5788 28.4436 58.2348 29.3436 59.2428 30.7836L58.1268 31.5756C57.2988 30.4236 56.0028 29.8116 54.5088 29.8116C51.8268 29.8116 50.0088 31.7556 50.0088 34.4376C50.0088 37.1196 51.8268 39.0636 54.5088 39.0636C56.7228 39.0636 58.3608 37.6416 58.5948 35.3916H54.4548V34.1316H60.1248V34.7076ZM66.1757 40.4496C63.6917 40.4496 61.9637 38.6136 61.9637 36.1476C61.9637 33.6636 63.6917 31.8636 66.1757 31.8636C68.6597 31.8636 70.3877 33.6636 70.3877 36.1476C70.3877 38.6136 68.6597 40.4496 66.1757 40.4496ZM66.1757 39.1896C67.9217 39.1896 69.0737 37.8936 69.0737 36.1476C69.0737 34.4016 67.9217 33.1236 66.1757 33.1236C64.4297 33.1236 63.2597 34.4016 63.2597 36.1476C63.2597 37.8936 64.4297 39.1896 66.1757 39.1896ZM76.3535 40.4496C73.8695 40.4496 72.1415 38.6136 72.1415 36.1476C72.1415 33.6636 73.8695 31.8636 76.3535 31.8636C78.8375 31.8636 80.5655 33.6636 80.5655 36.1476C80.5655 38.6136 78.8375 40.4496 76.3535 40.4496ZM76.3535 39.1896C78.0995 39.1896 79.2515 37.8936 79.2515 36.1476C79.2515 34.4016 78.0995 33.1236 76.3535 33.1236C74.6075 33.1236 73.4375 34.4016 73.4375 36.1476C73.4375 37.8936 74.6075 39.1896 76.3535 39.1896ZM89.4292 32.0076H90.7432V39.6756C90.7432 42.0516 89.0512 43.7076 86.3872 43.7076C84.9472 43.7076 83.7232 43.1496 82.9672 42.2496L83.8492 41.5116C84.5152 42.2496 85.4332 42.5736 86.3872 42.5736C87.9172 42.5736 89.4292 41.6556 89.4292 39.6756V38.7936C88.7992 39.7836 87.7552 40.4316 86.3512 40.4316C83.9932 40.4316 82.3192 38.6136 82.3192 36.1476C82.3192 33.6816 83.9932 31.8816 86.3512 31.8816C87.7552 31.8816 88.7992 32.5116 89.4292 33.5016V32.0076ZM86.5132 39.1896C88.2772 39.1896 89.4292 37.9116 89.4292 36.1476C89.4292 34.3836 88.2772 33.1236 86.5132 33.1236C84.7492 33.1236 83.5792 34.3836 83.5792 36.1476C83.5792 37.9116 84.7492 39.1896 86.5132 39.1896ZM94.291 40.2876H92.995V28.5876H94.291V40.2876ZM100.397 31.8636C102.773 31.8636 104.357 33.6816 104.357 36.1476V36.5616H97.5714C97.7334 38.2176 98.8674 39.3156 100.505 39.3156C101.729 39.3156 102.575 38.7576 103.043 38.0556L103.961 38.7216C103.241 39.7836 102.017 40.4496 100.505 40.4496C97.9854 40.4496 96.3114 38.6136 96.3114 36.1476C96.3114 33.6816 97.9134 31.8636 100.397 31.8636ZM100.397 32.9436C98.7774 32.9436 97.7514 34.0416 97.5714 35.6616H103.151C102.971 34.0956 101.945 32.9436 100.397 32.9436ZM115.249 28.5876C117.013 28.5876 118.597 29.9916 118.597 32.1516C118.597 34.3116 117.013 35.7156 115.249 35.7156H111.325V40.2876H109.975V28.5876H115.249ZM115.051 34.4016C116.311 34.4016 117.229 33.4116 117.229 32.1516C117.229 30.9096 116.329 29.9196 115.051 29.9196H111.325V34.4016H115.051ZM121.783 40.2876H120.487V28.5876H121.783V40.2876ZM130.914 32.0076H132.228V40.2876H130.914V38.7936C130.284 39.7836 129.24 40.4316 127.836 40.4316C125.478 40.4316 123.804 38.6136 123.804 36.1476C123.804 33.6636 125.478 31.8816 127.836 31.8816C129.24 31.8816 130.284 32.5116 130.914 33.5016V32.0076ZM127.998 39.1896C129.78 39.1896 130.914 37.9116 130.914 36.1476C130.914 34.3836 129.78 33.1236 127.998 33.1236C126.234 33.1236 125.064 34.3836 125.064 36.1476C125.064 37.9116 126.234 39.1896 127.998 39.1896ZM140.185 32.0076H141.535L136.927 43.5996H135.649L136.945 40.2696L133.705 32.0076H135.055L137.611 38.4876L140.185 32.0076Z" fill="white"/>
<path d="M8.67065 42.6457V9.66943L38.3224 25.6858L8.67065 42.6457Z" fill="#5CA9B3"/>
<path d="M8.67065 9.66943L29.6515 30.6502L38.3224 25.6858L8.67065 9.66943Z" fill="#C8DB9B"/>
<path d="M29.4718 20.9009L8.67065 42.6455L38.3224 25.6856L29.4718 20.9009Z" fill="#AC5067"/>
<path d="M29.6517 30.65L38.3225 25.6856L29.4719 20.9009L24.7996 25.7979L29.6517 30.65Z" fill="#F4A676"/>
</svg>
