<svg width="359" height="22" viewBox="0 0 359 22" fill="none" xmlns="http://www.w3.org/2000/svg">
<path d="M11 0L13.4697 7.60081H21.4616L14.996 12.2984L17.4656 19.8992L11 15.2016L4.53436 19.8992L7.00402 12.2984L0.538379 7.60081H8.53035L11 0Z" fill="#EDD146"/>
<path d="M43 0L45.4697 7.60081H53.4616L46.996 12.2984L49.4656 19.8992L43 15.2016L36.5344 19.8992L39.004 12.2984L32.5384 7.60081H40.5303L43 0Z" fill="#EDD146"/>
<path d="M75 0L77.4697 7.60081H85.4616L78.996 12.2984L81.4656 19.8992L75 15.2016L68.5344 19.8992L71.004 12.2984L64.5384 7.60081H72.5303L75 0Z" fill="#EDD146"/>
<path d="M107 0L109.47 7.60081H117.462L110.996 12.2984L113.466 19.8992L107 15.2016L100.534 19.8992L103.004 12.2984L96.5384 7.60081H104.53L107 0Z" fill="#EDD146"/>
<path d="M139 0L141.47 7.60081H149.462L142.996 12.2984L145.466 19.8992L139 15.2016L132.534 19.8992L135.004 12.2984L128.538 7.60081H136.53L139 0Z" fill="#EDD146"/>
<path d="M170.346 10.53C172.092 10.746 173.892 11.79 173.892 14.184C173.892 16.866 171.75 18.144 169.5 18.144C167.844 18.144 166.26 17.424 165.54 16.38L166.638 15.282C167.16 15.948 168.24 16.506 169.5 16.506C171.03 16.506 172.2 15.624 172.2 14.184C172.2 12.69 171.03 11.826 169.5 11.826C168.834 11.826 168.15 11.934 167.43 12.186L167.448 10.926L171.228 7.848H166.368V6.3H173.622V7.74L170.346 10.53ZM176.337 18.072C175.815 18.072 175.419 17.676 175.419 17.154C175.419 16.614 175.815 16.236 176.337 16.236C176.877 16.236 177.255 16.614 177.255 17.154C177.255 17.676 176.877 18.072 176.337 18.072ZM182.171 10.476C185.195 10.476 186.617 12.186 186.617 14.274C186.617 16.704 184.817 18.144 182.297 18.144C180.533 18.144 179.129 17.406 178.337 16.452L179.471 15.282C180.209 16.164 181.253 16.524 182.189 16.506C183.773 16.506 184.943 15.642 184.943 14.184C184.943 12.744 183.701 11.88 182.135 11.88C181.307 11.88 180.425 12.042 179.849 12.366L179.309 11.16L180.137 6.3H186.131V7.848H181.469L181.019 10.584C181.415 10.512 181.829 10.476 182.171 10.476Z" fill="#807D7E"/>
<path d="M222.5 6.40552C222.086 6.40552 221.75 6.7413 221.75 7.15552C221.75 7.56973 222.086 7.90552 222.5 7.90552V6.40552ZM230.5 7.90552C230.914 7.90552 231.25 7.56973 231.25 7.15552C231.25 6.7413 230.914 6.40552 230.5 6.40552V7.90552ZM222.5 10.4055C222.086 10.4055 221.75 10.7413 221.75 11.1555C221.75 11.5697 222.086 11.9055 222.5 11.9055V10.4055ZM226.5 11.9055C226.914 11.9055 227.25 11.5697 227.25 11.1555C227.25 10.7413 226.914 10.4055 226.5 10.4055V11.9055ZM236.282 15.0635L236.95 15.404V15.404L236.282 15.0635ZM235.408 15.9375L235.748 16.6058L235.408 15.9375ZM235.408 2.3735L235.748 1.70525L235.748 1.70525L235.408 2.3735ZM236.282 3.24754L236.95 2.90704V2.90704L236.282 3.24754ZM217.592 2.3735L217.933 3.04176L217.933 3.04176L217.592 2.3735ZM216.718 3.24754L217.386 3.58803L217.386 3.58803L216.718 3.24754ZM217.707 19.5416L218.14 20.1542L218.14 20.1542L217.707 19.5416ZM221.67 16.742L221.237 16.1295H221.237L221.67 16.742ZM216.59 19.6331L217.205 19.2032H217.205L216.59 19.6331ZM217.603 19.6038L217.268 18.9328L217.268 18.9328L217.603 19.6038ZM216.927 19.8411L216.817 20.5831H216.817L216.927 19.8411ZM217.67 19.5675L217.265 18.9358L217.265 18.9359L217.67 19.5675ZM217.644 19.5831L217.278 18.928L217.278 18.9281L217.644 19.5831ZM222.768 16.1895L222.906 16.9267L222.906 16.9267L222.768 16.1895ZM222.3 16.3381L222.614 17.0196L222.614 17.0196L222.3 16.3381ZM222.5 7.90552H230.5V6.40552H222.5V7.90552ZM222.5 11.9055H226.5V10.4055H222.5V11.9055ZM219.7 2.90552H233.3V1.40552H219.7V2.90552ZM235.75 5.35552V12.9555H237.25V5.35552H235.75ZM235.75 12.9555C235.75 13.5279 235.749 13.9122 235.725 14.208C235.702 14.4952 235.66 14.6324 235.614 14.723L236.95 15.404C237.122 15.0667 237.189 14.7101 237.22 14.3302C237.251 13.9591 237.25 13.5032 237.25 12.9555H235.75ZM233.3 16.9055C233.848 16.9055 234.304 16.9061 234.675 16.8758C235.055 16.8447 235.411 16.7776 235.748 16.6058L235.067 15.2693C234.977 15.3154 234.84 15.3573 234.553 15.3808C234.257 15.4049 233.872 15.4055 233.3 15.4055V16.9055ZM235.614 14.723C235.494 14.9582 235.303 15.1494 235.067 15.2693L235.748 16.6058C236.266 16.3421 236.687 15.9214 236.95 15.404L235.614 14.723ZM233.3 2.90552C233.872 2.90552 234.257 2.9061 234.553 2.93028C234.84 2.95373 234.977 2.99562 235.067 3.04176L235.748 1.70525C235.411 1.53341 235.055 1.46629 234.675 1.43526C234.304 1.40493 233.848 1.40552 233.3 1.40552V2.90552ZM237.25 5.35552C237.25 4.80784 237.251 4.35198 237.22 3.98085C237.189 3.60096 237.122 3.24431 236.95 2.90704L235.614 3.58803C235.66 3.67859 235.702 3.81587 235.725 4.103C235.749 4.39887 235.75 4.78309 235.75 5.35552H237.25ZM235.067 3.04176C235.303 3.1616 235.494 3.35283 235.614 3.58803L236.95 2.90704C236.687 2.3896 236.266 1.9689 235.748 1.70525L235.067 3.04176ZM219.7 1.40552C219.152 1.40552 218.696 1.40493 218.325 1.43526C217.945 1.46629 217.589 1.53341 217.252 1.70525L217.933 3.04176C218.023 2.99562 218.16 2.95373 218.447 2.93028C218.743 2.9061 219.128 2.90552 219.7 2.90552V1.40552ZM217.25 5.35552C217.25 4.78309 217.251 4.39887 217.275 4.103C217.298 3.81587 217.34 3.67859 217.386 3.58803L216.05 2.90704C215.878 3.24431 215.811 3.60096 215.78 3.98085C215.749 4.35198 215.75 4.80784 215.75 5.35552H217.25ZM217.252 1.70525C216.734 1.9689 216.313 2.3896 216.05 2.90704L217.386 3.58803C217.506 3.35283 217.697 3.1616 217.933 3.04176L217.252 1.70525ZM233.3 15.4055H223.516V16.9055H233.3V15.4055ZM218.14 20.1542L222.103 17.3545L221.237 16.1295L217.275 18.9291L218.14 20.1542ZM215.75 18.8611C215.75 19.0608 215.749 19.2622 215.764 19.4278C215.779 19.5923 215.817 19.8366 215.976 20.0629L217.205 19.2032C217.273 19.3005 217.266 19.3731 217.258 19.291C217.255 19.2564 217.253 19.2065 217.251 19.1315C217.25 19.0569 217.25 18.9701 217.25 18.8611H215.75ZM217.268 18.9328C217.181 18.9763 217.112 19.0107 217.052 19.0387C216.992 19.0669 216.953 19.0838 216.926 19.0939C216.863 19.1177 216.924 19.0825 217.037 19.0992L216.817 20.5831C217.078 20.6216 217.304 20.5546 217.455 20.4976C217.605 20.4409 217.774 20.3568 217.938 20.2748L217.268 18.9328ZM215.976 20.0629C216.173 20.3447 216.477 20.5328 216.817 20.5831L217.037 19.0992C217.105 19.1092 217.165 19.1469 217.205 19.2032L215.976 20.0629ZM217.25 18.8611V5.35552H215.75V18.8611H217.25ZM217.275 18.929C217.27 18.9324 217.266 18.9349 217.263 18.937C217.26 18.939 217.259 18.9401 217.258 18.9407C217.257 18.9416 217.26 18.9393 217.265 18.9358L218.074 20.1991C218.101 20.1817 218.127 20.1635 218.14 20.1542L217.275 18.929ZM217.938 20.2748C217.953 20.2675 217.981 20.2539 218.009 20.2381L217.278 18.9281C217.284 18.925 217.288 18.9232 217.286 18.9238C217.285 18.9243 217.284 18.9251 217.281 18.9267C217.277 18.9283 217.274 18.9302 217.268 18.9328L217.938 20.2748ZM217.265 18.9359C217.27 18.9331 217.274 18.9305 217.278 18.928L218.009 20.2381C218.031 20.2258 218.053 20.2127 218.074 20.1991L217.265 18.9359ZM223.516 15.4055C223.166 15.4055 222.897 15.4026 222.631 15.4522L222.906 16.9267C223.004 16.9084 223.112 16.9055 223.516 16.9055V15.4055ZM222.103 17.3545C222.433 17.1211 222.523 17.0612 222.614 17.0196L221.987 15.6565C221.742 15.7694 221.523 15.9273 221.237 16.1295L222.103 17.3545ZM222.631 15.4522C222.409 15.4936 222.193 15.5623 221.987 15.6565L222.614 17.0196C222.707 16.9768 222.805 16.9456 222.906 16.9267L222.631 15.4522Z" fill="#807D7E"/>
<path d="M256.09 6.3V18H254.398V7.848H251.77V6.3H256.09ZM257.966 16.596L260.54 14.328C262.052 13.032 264.266 11.178 264.266 9.612C264.266 8.478 263.438 7.74 261.944 7.74C260.666 7.74 259.676 8.496 259.424 9.324L257.894 8.64C258.254 7.488 259.712 6.138 261.944 6.138C264.428 6.138 266.012 7.434 266.012 9.522C266.012 11.754 263.636 13.734 262.466 14.778L260.576 16.452H265.994V18H257.966V16.596ZM272.32 18.144C269.314 18.144 267.46 15.624 267.46 12.15C267.46 8.676 269.314 6.156 272.32 6.156C275.308 6.156 277.198 8.676 277.198 12.15C277.198 15.624 275.308 18.144 272.32 18.144ZM272.32 16.506C274.192 16.506 275.47 14.85 275.47 12.15C275.47 9.45 274.192 7.83 272.32 7.83C270.448 7.83 269.152 9.45 269.152 12.15C269.152 14.85 270.448 16.506 272.32 16.506ZM288.737 12.15C288.341 11.592 287.639 11.124 286.577 11.124C284.993 11.124 283.913 12.258 283.913 13.86C283.913 15.444 284.993 16.614 286.577 16.614C287.639 16.614 288.323 16.164 288.737 15.606L289.907 16.47C289.187 17.514 287.999 18.162 286.541 18.162C284.057 18.162 282.329 16.344 282.329 13.86C282.329 11.358 284.057 9.576 286.541 9.576C287.999 9.576 289.187 10.224 289.907 11.25L288.737 12.15ZM295.419 18.162C292.917 18.162 291.171 16.326 291.171 13.86C291.171 11.358 292.917 9.558 295.419 9.558C297.903 9.558 299.631 11.358 299.631 13.86C299.631 16.326 297.903 18.162 295.419 18.162ZM295.419 16.614C296.985 16.614 298.029 15.426 298.029 13.86C298.029 12.276 296.985 11.124 295.419 11.124C293.835 11.124 292.791 12.276 292.791 13.86C292.791 15.426 293.835 16.614 295.419 16.614ZM310.981 9.594C312.493 9.594 314.059 10.422 314.059 12.906V18H312.439V13.122C312.439 11.538 311.395 11.016 310.513 11.016C309.613 11.016 308.605 11.538 308.605 13.122V18H306.985V13.122C306.985 11.538 305.941 11.016 305.041 11.016C304.159 11.016 303.133 11.538 303.133 13.122V18H301.513V9.72H303.133V10.71C303.727 9.936 304.627 9.594 305.509 9.594C306.553 9.594 307.633 9.99 308.191 11.052C308.821 9.972 309.955 9.594 310.981 9.594ZM325.694 9.594C327.206 9.594 328.772 10.422 328.772 12.906V18H327.152V13.122C327.152 11.538 326.108 11.016 325.226 11.016C324.326 11.016 323.318 11.538 323.318 13.122V18H321.698V13.122C321.698 11.538 320.654 11.016 319.754 11.016C318.872 11.016 317.846 11.538 317.846 13.122V18H316.226V9.72H317.846V10.71C318.44 9.936 319.34 9.594 320.222 9.594C321.266 9.594 322.346 9.99 322.904 11.052C323.534 9.972 324.668 9.594 325.694 9.594ZM334.773 9.576C337.185 9.576 338.751 11.394 338.751 13.86V14.328H332.235C332.397 15.804 333.441 16.758 334.881 16.758C336.069 16.758 336.825 16.218 337.221 15.642L338.355 16.452C337.635 17.496 336.393 18.162 334.881 18.162C332.361 18.162 330.669 16.326 330.669 13.86C330.669 11.394 332.289 9.576 334.773 9.576ZM334.773 10.872C333.351 10.872 332.433 11.826 332.235 13.266H337.239C337.041 11.88 336.159 10.872 334.773 10.872ZM344.818 9.594C346.42 9.594 348.094 10.512 348.094 12.906V18H346.474V13.14C346.474 11.61 345.394 10.98 344.35 10.98C343.324 10.98 342.262 11.61 342.262 13.14V18H340.642V9.72H342.262V10.728C342.892 9.918 343.864 9.594 344.818 9.594ZM354.31 10.962H352.384V15.642C352.384 16.542 352.96 16.704 353.536 16.704H354.22V18H352.906C351.52 18 350.764 17.226 350.764 15.876V10.962H349.63V9.72H350.764V7.182H352.384V9.72H354.31V10.962Z" fill="#807D7E"/>
</svg>
