<svg width="132" height="24" viewBox="0 0 132 24" fill="none" xmlns="http://www.w3.org/2000/svg">
<path d="M11.9137 17.2169L17.8861 20.8216L16.3012 14.0277L21.5778 9.45662L14.6293 8.86711L11.9137 2.45984L9.19809 8.86711L2.24963 9.45662L7.52621 14.0277L5.94131 20.8216L11.9137 17.2169Z" fill="#EDD146"/>
<path d="M38.973 17.2169L44.9454 20.8216L43.3605 14.0277L48.6371 9.45662L41.6886 8.86711L38.973 2.45984L36.2574 8.86711L29.309 9.45662L34.5855 14.0277L33.0006 20.8216L38.973 17.2169Z" fill="#EDD146"/>
<path d="M66.0325 17.2169L72.0049 20.8216L70.42 14.0277L75.6965 9.45662L68.7481 8.86711L66.0325 2.45984L63.3169 8.86711L56.3684 9.45662L61.645 14.0277L60.0601 20.8216L66.0325 17.2169Z" fill="#EDD146"/>
<path d="M93.0918 17.2169L99.0642 20.8216L97.4793 14.0277L102.756 9.45662L95.8074 8.86711L93.0918 2.45984L90.3762 8.86711L83.4277 9.45662L88.7043 14.0277L87.1194 20.8216L93.0918 17.2169Z" fill="#EDD146"/>
<path d="M129.815 9.45662L122.867 8.85745L120.151 2.45984L117.436 8.86711L110.487 9.45662L115.764 14.0277L114.179 20.8216L120.151 17.2169L126.124 20.8216L124.548 14.0277L129.815 9.45662ZM120.151 15.4097L116.518 17.6034L117.484 13.4672L114.275 10.684L118.508 10.3167L120.151 6.4221L121.804 10.3264L126.037 10.6936L122.828 13.4769L123.795 17.6131L120.151 15.4097Z" fill="#EDD146"/>
</svg>
